<svg id="Capa_1" enable-background="new 0 0 512 512" height="512" viewBox="0 0 512 512" width="512" xmlns="http://www.w3.org/2000/svg"><g><path d="m488.97 364.722-4.99 19.96-10.54 42.16h-434.88l-10.53-42.16-5-20z" fill="#fee45a"/><g><path d="m304.119 276.607-22.132-22.132 70.866-70.866-9.339-46.698c-1.026-5.131.58-10.435 4.28-14.135l33.033-33.033c6.112-6.112 16.021-6.112 22.133 0l65.893 65.893c6.112 6.112 6.112 16.021 0 22.133l-33.034 33.031c-3.7 3.7-9.005 5.306-14.135 4.28l-46.698-9.339zm71.73-137.622 7.293 36.468 36.468 7.293 16.044-16.044-43.761-43.761z" fill="#60b7ff"/></g><path d="m287.06 240.592h-102.31c-14.05 0-27.52 5.57-37.48 15.48l-.02.02c-9.93 9.89-23.36 15.46-37.37 15.48l-18.32.04c-7.02.02-13.9 1.42-20.26 4.06-.56.23-1.12.48-1.67.73 0-21.95 12.4-42.01 32.03-51.83l17.88-8.94c8.03-4.01 16.88-6.11 25.86-6.12l66.58-.06c28.18-.03 55.2 11.18 75.08 31.14z" fill="#d77f4a"/><path d="m488.967 333.616h-465.934c-8.578 0-15.531 6.953-15.531 15.531 0 8.578 6.954 15.531 15.531 15.531h465.934c8.578 0 15.531-6.954 15.531-15.531 0-8.578-6.953-15.531-15.531-15.531z" fill="#00f2a6"/><path d="m42.05 360.132c2.81 2.81 6.69 4.55 10.98 4.55h-30c-4.29 0-8.17-1.74-10.98-4.55s-4.55-6.7-4.55-10.98c0-8.58 6.96-15.54 15.53-15.54h30c-8.57 0-15.53 6.96-15.53 15.54 0 4.28 1.74 8.17 4.55 10.98z" fill="#05e39c"/><path d="m488.97 364.722-465.94-.04 15.53 62.16h30l-5.877-23.524c-2.365-9.467 4.795-18.636 14.553-18.636h406.744z" fill="#fed402"/><path d="m38.564 333.652v-8.941c0-14.083 5.594-27.589 15.553-37.548 9.933-9.933 23.396-15.525 37.443-15.553l18.318-.036c14.011-.028 27.442-5.591 37.369-15.479l.026-.026c9.952-9.913 23.427-15.479 37.474-15.479h122.03c7.463 0 14.825 1.732 21.506 5.059l41.899 20.867c6.623 3.299 13.916 5.029 21.316 5.059 12.695.05 24.859 5.102 33.854 14.062l2.906 2.894c9.041 9.006 21.282 14.062 34.043 14.062 6.15 0 11.136 4.986 11.136 11.136v19.885z" fill="#e8ad8c"/><path d="m234.75 240.592c-14.05 0-27.52 5.57-37.48 15.48l-.02.02c-9.93 9.89-23.36 15.46-37.37 15.48l-18.32.04c-7.02.02-13.9 1.42-20.26 4.06-6.37 2.64-12.22 6.52-17.18 11.49-9.96 9.96-15.56 23.47-15.56 37.55v8.94h-50v-8.94c0-14.08 5.6-27.59 15.56-37.55 4.96-4.97 10.81-8.85 17.18-11.49 6.36-2.64 13.24-4.04 20.26-4.06l18.32-.04c14.01-.02 27.44-5.59 37.37-15.48l.02-.02c9.96-9.91 23.43-15.48 37.48-15.48z" fill="#e19974"/><g><path d="m375.787 176.923c.594 2.969 2.915 5.29 5.884 5.884l36.468 7.293c2.43.474 4.688-.21 6.774-2.052l16.043-16.043c2.929-2.93 2.929-7.678 0-10.607l-43.76-43.761c-3.535-2.928-7.071-2.928-10.606 0l-16.044 16.044c-1.773 1.773-2.543 4.315-2.051 6.774zm16.106-43.376 33.154 33.154-7.902 7.902-27.629-5.525-5.525-27.629z"/><path d="m512 349.152c-1.315-14.041-8.991-21.721-23.03-23.04h-8.03v-12.38c-1.065-11.367-7.278-17.58-18.64-18.641-10.225 0-21.57-4.726-28.755-11.881-10.931-11.056-26.203-19.09-42.03-19.139-6.37-.053-12.367-1.474-17.991-4.263l-28.032-13.963 31.963-31.963 42.762 8.554c7.611 1.517 15.427-.854 20.906-6.332l33.035-33.034c9.018-9.033 9.016-23.722-.004-32.743l-65.89-65.889c-10.912-9.04-21.824-9.04-32.736-.001l-33.041 33.03c-5.479 5.479-7.846 13.294-6.332 20.914l8.553 42.765-51.945 51.944h-2.657c-20.913-19.829-49.154-31.14-78.015-31.14-.039 0-.08 0-.119 0l-20.93.021c-4.142.004-7.497 3.365-7.493 7.508.004 4.14 3.361 7.492 7.5 7.492h.007l20.931-.021h.103c19.15 0 37.984 5.744 53.903 16.14h-81.243c-16.133 0-31.322 6.273-42.717 17.612-.019.018-.057.056-.075.074-8.59 8.555-19.985 13.276-32.094 13.294l-18.324.04c-4.501.013-8.932.531-13.261 1.512 3.184-14.748 12.829-27.386 26.737-34.344 11.211-6.777 27.628-14.253 40.392-14.268l12.97-.011c4.142-.004 7.497-3.364 7.494-7.506-.003-4.141-3.36-7.494-7.5-7.494-.002 0-.004 0-.006 0l-12.972.011c-16.732.018-32.703 7.881-47.087 15.853-20.906 10.458-34.391 30.807-36.01 53.848-19.764 10.925-30.985 32.249-31.235 54.399h-8.03c-12.699 0-23.03 10.336-23.03 23.04.921 11.543 6.573 18.943 16.957 22.201l14.327 57.307c.834 3.339 3.834 5.681 7.276 5.681h57.49c4.142 0 7.5-3.357 7.5-7.5s-3.358-7.5-7.5-7.5h-51.636l-11.78-47.119h446.729l-11.78 47.119h-338.845c-4.142 0-7.5 3.357-7.5 7.5s3.358 7.5 7.5 7.5h344.7c3.441 0 6.441-2.342 7.276-5.681l14.325-57.296c9.761-2.669 16.959-11.612 16.959-22.21zm-151.795-167.011-9.339-46.691c-.534-2.688.298-5.445 2.227-7.374l33.041-33.031c3.841-3.181 7.682-3.181 11.523.001l65.89 65.889c3.177 3.178 3.176 8.354 0 11.534l-33.031 33.03c-1.929 1.929-4.686 2.763-7.365 2.229l-46.69-9.34c-2.46-.492-5.001.278-6.774 2.051l-38.363 38.361c-5.569-2.734-11.609-4.522-17.774-5.282l44.603-44.603c1.774-1.773 2.543-4.315 2.052-6.774zm128.765 175.041h-465.94c-4.892-.462-7.568-3.139-8.03-8.03 0-4.434 3.602-8.04 8.03-8.04l354.358.14h.002c4.141 0 7.499-3.356 7.5-7.498 0-.024-.003-.047-.004-.071 0-.024.004-.047.004-.071 0-4.143-3.358-7.5-7.5-7.5h-331.33c.702-24.751 19.608-46.928 45.517-47l18.314-.04c16.09-.023 31.238-6.298 42.597-17.612 8.457-7.987 20.657-13.368 32.263-13.368h122.03c6.27 0 12.547 1.478 18.156 4.273l41.901 20.871c7.702 3.819 15.915 5.764 24.64 5.836 11.905.037 23.427 6.31 31.49 14.774 9.826 9.785 25.35 16.245 39.333 16.245 2.22.202 3.434 1.415 3.64 3.641v12.38h-55.86c-4.142 0-7.5 3.357-7.5 7.5 0 .025.004.049.004.074s-.004.049-.004.074c-.001 4.142 3.355 7.501 7.498 7.502l78.893-.15c4.896.462 7.573 3.142 8.03 8.04-.002 4.428-3.604 8.03-8.032 8.03z"/></g><path d="m256 279.032c-4.142 0-7.5-3.358-7.5-7.5 0-4.142 3.358-7.5 7.5-7.5 4.142 0 7.5 3.358 7.5 7.5 0 4.142-3.358 7.5-7.5 7.5z"/><path d="m349.187 310.094c-4.142 0-7.5-3.358-7.5-7.5 0-4.142 3.358-7.5 7.5-7.5 4.142 0 7.5 3.358 7.5 7.5 0 4.142-3.358 7.5-7.5 7.5z"/><path d="m224.938 310.094c-4.142 0-7.5-3.358-7.5-7.5 0-4.142 3.358-7.5 7.5-7.5 4.142 0 7.5 3.358 7.5 7.5 0 4.142-3.358 7.5-7.5 7.5z"/><path d="m193.877 279.032c-4.142 0-7.5-3.358-7.5-7.5 0-4.142 3.358-7.5 7.5-7.5 4.142 0 7.5 3.358 7.5 7.5 0 4.142-3.358 7.5-7.5 7.5z"/><path d="m288.703 310.094c-4.142 0-7.5-3.358-7.5-7.5 0-4.142 3.358-7.5 7.5-7.5 4.142 0 7.5 3.358 7.5 7.5 0 4.142-3.358 7.5-7.5 7.5z"/><path d="m318.125 279.154c-4.142 0-7.5-3.358-7.5-7.5 0-4.142 3.358-7.5 7.5-7.5 4.142 0 7.5 3.358 7.5 7.5 0 4.142-3.358 7.5-7.5 7.5z"/></g></svg>