<?xml version="1.0" encoding="iso-8859-1"?>
<!-- Generator: Adobe Illustrator 19.0.0, SVG Export Plug-In . SVG Version: 6.00 Build 0)  -->
<svg version="1.1" id="Capa_1" xmlns="http://www.w3.org/2000/svg" xmlns:xlink="http://www.w3.org/1999/xlink" x="0px" y="0px"
	 viewBox="0 0 512.013 512.013" style="enable-background:new 0 0 512.013 512.013;" xml:space="preserve">
<polyline style="fill:#1F6C8C;" points="200.53,252.637 24.922,281.582 17.063,230.996 495.604,149.947 503.463,200.541 
	315.73,234.674 "/>
<polygon style="fill:#176177;" points="21.193,257.586 24.922,281.582 200.53,252.637 315.73,234.674 503.463,200.541 
	499.179,172.944 "/>
<g>
	<polygon style="fill:#6C7175;" points="448.611,180.948 443.286,159.973 435.41,125.644 430.563,109.064 446.947,104.276 
		451.922,121.343 459.875,155.963 465.157,176.75 	"/>
	<polygon style="fill:#6C7175;" points="55.924,245.367 42.919,194.073 34.975,171.766 51.06,166.066 59.235,189.157 
		72.445,241.049 	"/>
</g>
<polygon style="fill:#1F6C8C;" points="495.604,149.947 17.063,230.996 21.193,257.586 499.179,172.944 "/>
<path style="fill:#FBB540;" d="M337.063,388.274v10.138h-153.6v-10.138l17.067-136.533c0-32.99,26.743-59.733,59.733-59.733l0,0
	c32.99,0,59.733,26.743,59.733,59.733L337.063,388.274z"/>
<g>
	<path style="fill:#D68F29;" d="M349.863,430.941H162.13c-14.14,0-25.6-8.183-25.6-18.287v-6.093c0-10.103,11.46-18.287,25.6-18.287
		h187.733c14.14,0,25.6,8.183,25.6,18.287v6.093C375.463,422.749,358.593,430.941,349.863,430.941z"/>
	<polygon style="fill:#D68F29;" points="186.663,362.674 183.463,388.274 337.063,388.274 333.863,362.674 	"/>
</g>
<path style="fill:#FBB540;" d="M136.53,406.553v6.093c0,0.418,0.137,0.811,0.171,1.22h238.515c0.06-0.41,0.247-0.794,0.247-1.212
	v-6.093c0-10.103-11.46-18.287-25.6-18.287H162.13C147.99,388.274,136.53,396.458,136.53,406.553z"/>
<g>
	<polygon style="fill:#62666A;" points="59.235,189.157 51.06,166.066 34.975,171.766 42.919,194.073 46.111,206.676 
		62.845,203.331 	"/>
	<polygon style="fill:#62666A;" points="451.922,121.343 446.947,104.276 430.563,109.064 435.41,125.644 438.354,138.469 
		455.088,135.116 	"/>
</g>
<g>
	<polygon style="fill:#3B869E;" points="486.397,115.208 409.597,132.274 401.063,98.141 477.863,81.074 	"/>
	<polygon style="fill:#3B869E;" points="93.863,183.474 17.063,200.541 8.53,166.408 85.33,149.341 	"/>
</g>
<circle style="fill:#B47923;" cx="255.997" cy="251.741" r="17.067"/>
<path style="fill:#D68F29;" d="M243.93,239.666c-2.236,2.236-3.652,4.958-4.395,7.817c1.911,7.339,8.525,12.791,16.461,12.791
	s14.549-5.444,16.461-12.791c-0.734-2.859-2.15-5.572-4.395-7.817C261.398,233.002,250.595,233.002,243.93,239.666z"/>
<path d="M1.277,161.919c-1.212,1.954-1.579,4.318-1.024,6.554l8.533,34.133c0.964,3.874,4.437,6.468,8.269,6.468
	c0.614,0,1.237-0.068,1.86-0.196l26.249-5.828l3.49,13.952l-33.007,5.589c-4.599,0.785-7.723,5.12-7.006,9.728l7.859,50.594
	c0.35,2.253,1.587,4.267,3.43,5.598c1.468,1.067,3.217,1.621,5.001,1.621c0.461,0,0.922-0.043,1.391-0.119l164.215-27.076
	l-14.609,116.804H162.13c-19.14,0-34.133,11.785-34.133,26.82v6.101c0,15.027,14.993,26.812,34.133,26.812h187.733
	c11.725,0,34.133-10.445,34.133-26.82v-6.101c0-15.036-14.993-26.812-34.133-26.812h-5.265L328.53,251.186
	c-0.026-3.413-0.384-6.733-0.896-10.01l177.365-32.247c4.557-0.828,7.62-5.137,6.912-9.702l-7.859-50.594
	c-0.35-2.261-1.596-4.284-3.447-5.615c-1.852-1.331-4.156-1.835-6.409-1.493l-36.207,6.135l-3.797-16.555l34.074-7.569
	c2.253-0.503,4.198-1.894,5.41-3.849c1.212-1.954,1.579-4.318,1.024-6.554l-8.533-34.133c-1.126-4.497-5.632-7.245-10.129-6.263
	l-76.8,17.067c-2.253,0.503-4.198,1.894-5.41,3.849c-1.212,1.954-1.579,4.318-1.024,6.554l8.533,34.133
	c0.947,3.874,4.42,6.468,8.252,6.468c0.614,0,1.237-0.068,1.86-0.196l26.069-5.794l3.601,15.701L65.524,214.126l-3.695-14.797
	l33.886-7.535c2.253-0.503,4.198-1.894,5.41-3.849c1.212-1.954,1.579-4.318,1.024-6.554l-8.533-34.133
	c-1.118-4.489-5.632-7.228-10.129-6.263l-76.8,17.067C4.434,158.574,2.48,159.965,1.277,161.919z M411.465,104.566L471.6,91.203
	l4.395,17.57l-60.134,13.363L411.465,104.566z M26.791,238.002l181.837-30.797c-9.02,10.445-14.925,23.629-16.282,38.135
	L32.031,271.769L26.791,238.002z M366.93,406.553v6.101c0,3.191-10.539,9.754-17.067,9.754H162.13
	c-9.771,0-17.067-5.154-17.067-9.754v-6.101c0-4.599,7.305-9.745,17.067-9.745h21.333h153.6h12.8
	C359.634,396.808,366.93,401.953,366.93,406.553z M193.131,379.741l15.863-126.942c0.051-0.35,0.068-0.708,0.068-1.058
	c0-28.237,22.963-51.2,51.2-51.2s51.2,22.963,51.2,51.2c0,0.35,0.017,0.708,0.068,1.058l15.863,126.942H193.131z M493.752,193.629
	l-170.82,31.061c-5.845-13.491-15.949-24.687-28.578-32.009l194.142-32.879L493.752,193.629z M79.066,159.47l4.395,17.57
	l-60.134,13.363l-4.395-17.57L79.066,159.47z"/>
<path d="M255.997,226.141c-14.114,0-25.6,11.486-25.6,25.6s11.486,25.6,25.6,25.6s25.6-11.486,25.6-25.6
	S270.111,226.141,255.997,226.141z M255.997,260.274c-4.702,0-8.533-3.823-8.533-8.533c0-4.71,3.831-8.533,8.533-8.533
	s8.533,3.823,8.533,8.533C264.53,256.451,260.698,260.274,255.997,260.274z"/>
<g>
</g>
<g>
</g>
<g>
</g>
<g>
</g>
<g>
</g>
<g>
</g>
<g>
</g>
<g>
</g>
<g>
</g>
<g>
</g>
<g>
</g>
<g>
</g>
<g>
</g>
<g>
</g>
<g>
</g>
</svg>
